<?xml version="1.0" encoding="UTF-8"?>
<svg xmlns="http://www.w3.org/2000/svg" width="26" height="26" viewBox="0 0 26 26" fill="none">
  <g id="Menu icon">
    <path id="Vector" fill-rule="evenodd" clip-rule="evenodd" d="M24.7426 24.4903C25.2307 24.0022 25.2307 23.2107 24.7426 22.7226L3.52938 1.50936C3.04119 1.02117 2.24977 1.0212 1.76161 1.50936C1.27342 1.99755 1.27342 2.78894 1.76161 3.27713L22.9748 24.4903C23.463 24.9785 24.2544 24.9785 24.7426 24.4903Z" fill="#2D3A4B"></path>
    <path id="Vector_2" fill-rule="evenodd" clip-rule="evenodd" d="M24.7452 1.50937C24.257 1.02119 23.4656 1.02121 22.9774 1.50937L1.76424 22.7226C1.27606 23.2108 1.27606 24.0022 1.76424 24.4903C2.25243 24.9785 3.04382 24.9785 3.53201 24.4903L24.7452 3.27714C25.2334 2.78898 25.2334 1.99756 24.7452 1.50937Z" fill="#2D3A4B"></path>
  </g>
</svg>
