<svg width="33" height="28" viewBox="0 0 33 28" fill="none" xmlns="http://www.w3.org/2000/svg">
<path fill-rule="evenodd" clip-rule="evenodd" d="M0.5 1.50049C0.5 0.810128 1.05964 0.250488 1.75 0.250488H31.75C32.4404 0.250488 33 0.810128 33 1.50049C33 2.19089 32.4404 2.75049 31.75 2.75049H1.75C1.05964 2.75049 0.5 2.19089 0.5 1.50049Z" fill="#004C8D"/>
<path fill-rule="evenodd" clip-rule="evenodd" d="M7.16699 14.0005C7.16699 13.3101 7.72659 12.7505 8.41699 12.7505H31.7503C32.4407 12.7505 33.0003 13.3101 33.0003 14.0005C33.0003 14.6909 32.4407 15.2505 31.7503 15.2505H8.41699C7.72659 15.2505 7.16699 14.6909 7.16699 14.0005Z" fill="#004C8D"/>
<path fill-rule="evenodd" clip-rule="evenodd" d="M0.5 26.5005C0.5 25.8101 1.05964 25.2505 1.75 25.2505H31.75C32.4404 25.2505 33 25.8101 33 26.5005C33 27.1909 32.4404 27.7505 31.75 27.7505H1.75C1.05964 27.7505 0.5 27.1909 0.5 26.5005Z" fill="#004C8D"/>
</svg>
