<svg width="188" height="42" viewBox="0 0 188 42" fill="none" xmlns="http://www.w3.org/2000/svg">
<mask id="mask0_136_68" style="mask-type:alpha" maskUnits="userSpaceOnUse" x="0" y="0" width="43" height="42">
<path d="M21.2561 41.5836C32.7466 41.5836 42.0616 32.3234 42.0616 20.9004C42.0616 9.47745 32.7466 0.217285 21.2561 0.217285C9.7656 0.217285 0.450684 9.47745 0.450684 20.9004C0.450684 32.3234 9.7656 41.5836 21.2561 41.5836Z" fill="black"/>
</mask>
<g mask="url(#mask0_136_68)">
<path d="M72.4003 18.9925C72.4003 47.1427 49.4747 69.9999 21.1467 69.9999C-7.18135 69.9999 -30.104 47.1427 -30.104 18.9925C-30.104 -9.15769 -7.17839 -32.0149 21.1467 -32.0149C49.4718 -32.0149 72.4003 -9.15769 72.4003 18.9925Z" fill="#F4F4F4"/>
<g style="mix-blend-mode:hard-light">
<path d="M72.4003 18.9925C72.4003 47.1427 49.4747 69.9999 21.1467 69.9999C-7.18135 69.9999 -30.104 47.1427 -30.104 18.9925C-30.104 -9.15769 -7.17839 -32.0149 21.1467 -32.0149C49.4718 -32.0149 72.4003 -9.15769 72.4003 18.9925Z" stroke="#C7C6C7" stroke-width="25.24"/>
</g>
<path d="M-6.94189 33.5684C-6.94189 33.5684 17.1843 55.2319 49.5427 32.1141C49.5427 32.1141 16.099 23.1217 -6.94189 33.5684Z" fill="#94C49E"/>
<path d="M31.3062 14.3992V12.2252L34.2247 11.2092V13.7476L40.535 12.3407L33.1011 19.5767L28.9258 14.9264L31.3062 14.3963V14.3992Z" fill="#315380"/>
<path d="M1.86915 20.0354H0.387695V21.5075H1.86915V20.0354Z" fill="#231F20"/>
<path d="M3.78468 20.0354H2.30322V21.5075H3.78468V20.0354Z" fill="#231F20"/>
<path d="M1.86915 21.8152H0.387695V23.2873H1.86915V21.8152Z" fill="#231F20"/>
<path d="M3.78468 21.8152H2.30322V23.2873H3.78468V21.8152Z" fill="#231F20"/>
<path d="M20.8928 18.5813H18.3794V21.0812H20.8928V18.5813Z" fill="#231F20"/>
<path d="M24.1414 18.5813H21.6279V21.0812H24.1414V18.5813Z" fill="#231F20"/>
<path d="M20.8928 21.6021H18.3794V24.1019H20.8928V21.6021Z" fill="#231F20"/>
<path d="M24.1414 21.6021H21.6279V24.1019H24.1414V21.6021Z" fill="#231F20"/>
<path d="M21.2535 6.28564L1.26123 28.3698L6.29404 27.6441L21.2505 11.3624L36.207 27.6441L41.2398 28.3698L21.2505 6.28564H21.2535Z" fill="#231F20"/>
<path d="M1.9947 12.3403L-2.96715 17.6629V15.6044H-5.48355V20.3672L-11.7583 27.0996H-6.76098V29.2737H-5.77629V25.9385H-7.18383L2.06567 16.256L7.57455 21.5134L9.31918 19.4697L1.9947 12.3403Z" fill="#231F20"/>
<path d="M11.2259 14.3992V12.2252L8.30731 11.2092V13.7476L1.99707 12.3407L9.32155 19.47L13.4614 14.8968L11.2259 14.3992Z" fill="#315380"/>
<path d="M8.30523 10.4832L6.60791 11.3332V12.0115L8.30523 11.2088L11.2238 12.2248V11.6531L8.30523 10.4832Z" fill="#231F20"/>
<path d="M6.60791 13.3714L8.30523 13.7387V11.2092L6.60791 12.0119V13.3714Z" fill="#E8E8E8"/>
<path d="M42.1416 20.0354H40.6602V21.5075H42.1416V20.0354Z" fill="#231F20"/>
<path d="M40.2315 20.0354H38.75V21.5075H40.2315V20.0354Z" fill="#231F20"/>
<path d="M42.1416 21.8152H40.6602V23.2873H42.1416V21.8152Z" fill="#231F20"/>
<path d="M40.2315 21.8152H38.75V23.2873H40.2315V21.8152Z" fill="#231F20"/>
<path d="M40.5373 12.3403L45.4992 17.6629V15.6044H48.0156V20.3672L54.2903 27.0996H49.293V29.2737H48.3083V25.9385H49.7159L40.4634 16.256L34.9575 21.5134L33.1626 19.52L40.5403 12.3403H40.5373Z" fill="#231F20"/>
<path d="M34.2228 10.4832L35.9201 11.3332V12.0115L34.2228 11.2088L31.3042 12.2248V11.6531L34.2228 10.4832Z" fill="#231F20"/>
<path d="M35.92 13.3714L34.2227 13.7387V11.2092L35.92 12.0119V13.3714Z" fill="#E8E8E8"/>
</g>
<path d="M55.4452 15.3557C55.4452 15.7318 55.4215 16.0406 55.378 16.2782C55.2832 16.7889 55.0104 17.2481 54.5599 17.6598C53.9789 18.1943 53.2674 18.4596 52.4295 18.4596C51.4374 18.4596 50.6351 18.0043 50.0225 17.0937L51.5955 15.4943C51.6667 16.096 51.9275 16.3969 52.3781 16.3969C52.8287 16.3969 53.0619 16.0406 53.05 15.324L53.0421 14.8173V8.96582H55.4452V15.3597V15.3557Z" fill="black"/>
<path d="M67.1858 13.6139C67.1858 14.8689 66.7668 15.9695 65.9368 16.9197C64.9843 18.0005 63.6997 18.5389 62.0753 18.5389C60.4508 18.5389 59.1702 18.0005 58.2216 16.9197C57.3877 15.9734 56.9727 14.8689 56.9727 13.6139C56.9727 13.0398 57.0873 12.4539 57.3126 11.8481C57.5379 11.2464 57.8383 10.7277 58.2177 10.3002C59.1702 9.21934 60.4548 8.68091 62.0792 8.68091C63.7037 8.68091 64.9882 9.21934 65.9407 10.3002C66.7747 11.2464 67.1897 12.3549 67.1897 13.6139H67.1858ZM64.6997 13.6139C64.6997 12.9646 64.4902 12.3984 64.0752 11.9234C63.5416 11.3176 62.8737 11.0128 62.0753 11.0128C61.5259 11.0128 61.0239 11.1672 60.5773 11.4799C60.1307 11.7887 59.8105 12.2044 59.6208 12.7191C59.5101 13.0121 59.4587 13.313 59.4587 13.6139C59.4587 14.2394 59.6682 14.7976 60.0832 15.2925C60.5971 15.9022 61.265 16.211 62.0753 16.211C62.8855 16.211 63.5574 15.9101 64.0752 15.3004C64.4902 14.8174 64.6997 14.2552 64.6997 13.6178V13.6139Z" fill="black"/>
<path d="M76.9697 18.2061H74.5666V14.3579H71.1043V18.2061H68.7012V8.95776H71.1043V12.5288H74.5666V8.95776H76.9697V18.2061Z" fill="black"/>
<path d="M88.1288 18.2063H85.7296L81.3108 12.5449V18.2063H78.9077V8.95801H81.3108L85.7296 14.6155V8.95801H88.1288V18.2063Z" fill="black"/>
<path d="M100.925 15.5773C100.925 16.2701 100.727 16.8283 100.336 17.2638C99.7668 17.8893 98.9013 18.2061 97.7392 18.2061H93.8975V8.95776H97.4665C99.1977 8.95776 100.063 9.76145 100.063 11.3688C100.063 11.8518 99.9684 12.2556 99.7787 12.5803C99.6206 12.8534 99.3755 13.091 99.0475 13.285C99.7866 13.4394 100.289 13.7363 100.557 14.1718C100.798 14.5756 100.921 15.0428 100.921 15.5733L100.925 15.5773ZM97.838 11.6895C97.838 11.2698 97.6483 10.9927 97.2728 10.8541C97.1385 10.8066 96.9606 10.7868 96.7353 10.7868H96.2966V12.5961H96.7353C97.1503 12.5961 97.4428 12.4932 97.6246 12.2913C97.7669 12.1289 97.838 11.927 97.838 11.6895ZM98.5218 15.4189C98.5218 14.8805 98.2451 14.5637 97.6918 14.4727C97.5179 14.445 97.2136 14.4331 96.7867 14.4331H96.2926V16.3849H96.8262C97.4388 16.3849 97.8618 16.3136 98.1068 16.1672C98.3795 16.0048 98.5179 15.7554 98.5179 15.4229L98.5218 15.4189Z" fill="black"/>
<path d="M110.521 14.2947C110.521 14.849 110.474 15.3241 110.387 15.72C110.249 16.3297 109.913 16.8839 109.383 17.3867C108.636 18.0954 107.632 18.4517 106.379 18.4517C105.126 18.4517 104.107 18.0914 103.391 17.3669C103.012 16.9869 102.755 16.5118 102.613 15.9377C102.514 15.5299 102.462 14.9836 102.462 14.2987V8.96588H104.865V13.9661C104.865 14.3699 104.869 14.6669 104.885 14.8648C104.933 15.4904 105.217 15.9298 105.743 16.1753C105.96 16.2782 106.197 16.3297 106.462 16.3297C107.047 16.3297 107.49 16.1238 107.786 15.716C108.008 15.4151 108.118 14.8292 108.118 13.9622V8.96191H110.521V14.2947Z" fill="black"/>
<path d="M120.517 8.96191L117.058 13.7642V18.2102H114.659V13.7642L111.315 8.96191H114.185L115.932 11.4838L117.608 8.96191H120.517Z" fill="black"/>
<path d="M127.716 15.1497C127.716 16.7135 127.033 17.735 125.661 18.21C125.183 18.3763 124.669 18.4595 124.12 18.4595C122.965 18.4595 121.894 18.1071 120.906 17.4103L121.934 15.4744C122.657 16.1276 123.365 16.4562 124.056 16.4562C124.369 16.4562 124.633 16.381 124.851 16.2384C125.104 16.0761 125.23 15.8425 125.23 15.5377C125.23 15.2645 125.088 15.0349 124.811 14.8528C124.606 14.7142 124.254 14.5757 123.76 14.4331C123.163 14.2589 122.792 14.1362 122.633 14.0689C122.388 13.966 122.183 13.8432 122.013 13.7047C121.519 13.2969 121.274 12.6832 121.274 11.8637C121.274 11.0442 121.527 10.2959 122.037 9.7298C122.63 9.06864 123.428 8.73608 124.42 8.73608C125.412 8.73608 126.392 8.9855 127.349 9.4883L126.388 11.357C125.863 10.9452 125.333 10.7394 124.803 10.7394C124.546 10.7394 124.313 10.8067 124.112 10.9373C123.882 11.0877 123.764 11.2857 123.764 11.5351C123.764 11.7845 123.914 11.9904 124.218 12.1646C124.353 12.2477 124.76 12.3863 125.436 12.5882C126.286 12.8376 126.89 13.19 127.25 13.6453C127.562 14.0333 127.716 14.5321 127.716 15.1458V15.1497Z" fill="black"/>
<path d="M141.334 18.2061H138.931V14.3579H135.469V18.2061H133.065V8.95776H135.469V12.5288H138.931V8.95776H141.334V18.2061Z" fill="black"/>
<path d="M153.083 13.6178C153.083 14.8728 152.664 15.9773 151.834 16.9236C150.881 18.0044 149.597 18.5428 147.972 18.5428C146.348 18.5428 145.067 18.0044 144.119 16.9236C143.285 15.9773 142.87 14.8728 142.87 13.6178C142.87 13.0437 142.984 12.4578 143.21 11.852C143.435 11.2503 143.735 10.7316 144.115 10.3041C145.067 9.22324 146.352 8.68481 147.976 8.68481C149.601 8.68481 150.885 9.22324 151.838 10.3041C152.672 11.2503 153.087 12.3588 153.087 13.6178H153.083ZM150.593 13.6178C150.593 12.9685 150.383 12.4023 149.968 11.9273C149.435 11.3215 148.767 11.0167 147.968 11.0167C147.419 11.0167 146.917 11.1711 146.47 11.4839C146.024 11.7927 145.704 12.2084 145.514 12.723C145.403 13.016 145.352 13.3169 145.352 13.6178C145.352 14.2433 145.561 14.8015 145.976 15.2964C146.49 15.9061 147.158 16.2149 147.968 16.2149C148.779 16.2149 149.45 15.914 149.968 15.3043C150.383 14.8213 150.593 14.2591 150.593 13.6178Z" fill="black"/>
<path d="M162.657 14.2947C162.657 14.849 162.61 15.3241 162.523 15.72C162.384 16.3297 162.048 16.8839 161.519 17.3867C160.768 18.0954 159.768 18.4517 158.515 18.4517C157.262 18.4517 156.242 18.0914 155.527 17.3669C155.148 16.9869 154.891 16.5118 154.748 15.9377C154.65 15.5299 154.598 14.9836 154.598 14.2987V8.96588H157.001V13.9661C157.001 14.3699 157.009 14.6669 157.021 14.8648C157.068 15.4904 157.353 15.9298 157.879 16.1753C158.096 16.2782 158.333 16.3297 158.598 16.3297C159.183 16.3297 159.626 16.1238 159.922 15.716C160.143 15.4151 160.254 14.8292 160.254 13.9622V8.96191H162.657V14.2947Z" fill="black"/>
<path d="M170.988 15.1497C170.988 16.7135 170.3 17.735 168.933 18.21C168.454 18.3763 167.94 18.4595 167.391 18.4595C166.237 18.4595 165.166 18.1071 164.178 17.4103L165.205 15.4744C165.929 16.1276 166.636 16.4562 167.328 16.4562C167.64 16.4562 167.905 16.381 168.122 16.2384C168.375 16.0761 168.502 15.8425 168.502 15.5377C168.502 15.2645 168.359 15.0349 168.083 14.8528C167.877 14.7142 167.525 14.5757 167.035 14.4331C166.439 14.2589 166.063 14.1362 165.909 14.0689C165.664 13.966 165.458 13.8432 165.284 13.7047C164.79 13.2969 164.545 12.6832 164.545 11.8637C164.545 11.0442 164.798 10.2959 165.308 9.7298C165.901 9.06864 166.699 8.73608 167.688 8.73608C168.676 8.73608 169.66 8.9855 170.616 9.4883L169.656 11.357C169.13 10.9452 168.604 10.7394 168.071 10.7394C167.814 10.7394 167.581 10.8067 167.379 10.9373C167.15 11.0877 167.031 11.2857 167.031 11.5351C167.031 11.7845 167.182 11.9904 167.486 12.1646C167.62 12.2477 168.027 12.3863 168.703 12.5882C169.553 12.8376 170.158 13.19 170.517 13.6453C170.83 14.0333 170.984 14.5321 170.984 15.1458L170.988 15.1497Z" fill="black"/>
<path d="M177.76 18.2063H172.503V8.95801H177.76V10.9613H174.906V12.5409H177.606V14.5442H174.906V16.1951H177.76V18.1984V18.2063Z" fill="black"/>
<path d="M185.682 15.1497C185.682 16.7135 184.998 17.735 183.627 18.21C183.149 18.3763 182.635 18.4595 182.085 18.4595C180.931 18.4595 179.86 18.1071 178.872 17.4103L179.9 15.4744C180.623 16.1276 181.33 16.4562 182.022 16.4562C182.334 16.4562 182.599 16.381 182.817 16.2384C183.07 16.0761 183.196 15.8425 183.196 15.5377C183.196 15.2645 183.054 15.0349 182.777 14.8528C182.572 14.7142 182.22 14.5757 181.726 14.4331C181.129 14.2589 180.757 14.1362 180.599 14.0689C180.354 13.966 180.149 13.8432 179.975 13.7047C179.481 13.2969 179.236 12.6832 179.236 11.8637C179.236 11.0442 179.489 10.2959 179.999 9.7298C180.591 9.06864 181.39 8.73608 182.382 8.73608C183.374 8.73608 184.354 8.9855 185.311 9.4883L184.35 11.357C183.824 10.9452 183.295 10.7394 182.765 10.7394C182.508 10.7394 182.275 10.8067 182.074 10.9373C181.844 11.0877 181.726 11.2857 181.726 11.5351C181.726 11.7845 181.876 11.9904 182.18 12.1646C182.315 12.2477 182.722 12.3863 183.398 12.5882C184.247 12.8376 184.852 13.19 185.212 13.6453C185.524 14.0333 185.678 14.5321 185.678 15.1458L185.682 15.1497Z" fill="black"/>
<path d="M82.6335 29.018C82.6335 28.5745 82.2699 28.2222 81.8312 28.2301L48.0615 29.018L81.8312 29.8058C82.2738 29.8177 82.6335 29.4614 82.6335 29.018Z" fill="black"/>
<path d="M153.065 29.018C153.065 28.5745 153.429 28.2222 153.868 28.2301L187.637 29.018L153.868 29.8058C153.425 29.8177 153.065 29.4614 153.065 29.018Z" fill="black"/>
<path d="M89.8301 24.9207H90.9012V33.1159H89.8301V24.9207ZM90.506 32.1023H91.8498C92.0909 32.1023 92.2766 32.043 92.411 31.9202C92.5454 31.8015 92.6086 31.6273 92.6086 31.4095V30.3366C92.6086 30.1307 92.5731 29.9526 92.5059 29.8061C92.4387 29.6596 92.3438 29.5488 92.2213 29.4696C92.0988 29.3944 91.9565 29.3548 91.7905 29.3548H90.502V28.3413H91.7905C92.0158 28.3413 92.1897 28.266 92.3162 28.1116C92.4426 27.9572 92.5019 27.7395 92.5019 27.4584V26.623C92.5019 26.4053 92.4387 26.2351 92.3162 26.1163C92.1936 25.9975 92.0197 25.9342 91.8063 25.9342H90.506V24.9207H91.7865C92.162 24.9207 92.4822 24.984 92.7509 25.1107C93.0197 25.2374 93.2213 25.4274 93.3596 25.6729C93.498 25.9183 93.5691 26.2153 93.5691 26.5597V27.4267C93.5691 27.6841 93.5256 27.9097 93.4466 28.1116C93.3636 28.3135 93.245 28.4759 93.0908 28.6026C92.9327 28.7292 92.747 28.8163 92.5296 28.8599C92.7707 28.8955 92.9762 28.9826 93.1501 29.1133C93.324 29.2439 93.4545 29.4142 93.5454 29.624C93.6363 29.8338 93.6798 30.0753 93.6798 30.3564V31.4372C93.6798 31.7935 93.6126 32.0984 93.4782 32.3478C93.3438 32.5972 93.1462 32.7873 92.8853 32.9179C92.6245 33.0485 92.3083 33.1159 91.9407 33.1159H90.506V32.1023Z" fill="black"/>
<path d="M99.1032 24.9209H100.083L101.973 33.1161H100.823L99.5894 26.5995L98.3562 33.1161H97.2061L99.0953 24.9209H99.1032ZM98.4195 30.321H100.846V31.3306H98.4195V30.321Z" fill="black"/>
<path d="M107.333 29.6915V33.1201H106.262V29.6915L104.629 24.9209H105.716L106.799 28.4484L107.823 24.9209H108.91L107.333 29.6915Z" fill="black"/>
<path d="M119.402 24.9207H120.382L122.272 33.1159H121.121L119.888 26.5993L118.655 33.1159H117.505L119.394 24.9207H119.402ZM118.722 30.3208H121.149V31.3303H118.722V30.3208Z" fill="black"/>
<path d="M126.115 24.9165H127.186V33.1157H126.115V24.9165ZM126.613 28.638H128.123C128.312 28.638 128.478 28.6024 128.613 28.5311C128.751 28.4598 128.854 28.3569 128.925 28.2223C128.996 28.0877 129.032 27.9254 129.032 27.7314V26.896C129.032 26.6941 128.996 26.5199 128.925 26.3734C128.854 26.2269 128.747 26.1201 128.613 26.0448C128.474 25.9696 128.312 25.934 128.123 25.934H126.613V24.9205H128.024C128.459 24.9205 128.834 24.9917 129.142 25.1382C129.451 25.2807 129.692 25.4945 129.854 25.7756C130.016 26.0567 130.099 26.3932 130.099 26.7812V27.7393C130.099 28.1431 130.016 28.4876 129.854 28.7726C129.692 29.0616 129.455 29.2794 129.142 29.4298C128.83 29.5802 128.459 29.6555 128.024 29.6555H126.613V28.642V28.638ZM128.02 29.3981L129.028 29.1408L130.332 33.1196H129.162L128.02 29.3981Z" fill="black"/>
<path d="M134.429 24.9207H135.496V33.1159H134.429V24.9207ZM134.986 24.9207H137.942V25.9342H134.986V24.9207ZM134.986 28.5392H137.658V29.5527H134.986V28.5392ZM134.986 32.1023H137.942V33.1159H134.986V32.1023Z" fill="black"/>
<path d="M143.395 24.9207H144.375L146.265 33.1159H145.115L143.881 26.5993L142.648 33.1159H141.498L143.387 24.9207H143.395ZM142.715 30.3208H145.142V31.3303H142.715V30.3208Z" fill="black"/>
</svg>
